P3
64 48
255
232 196 202 255 236 250 255 248 253 255 228 246 255 246 252 255 236 254 255 249 254 255 229 248 255 243 253 255 227 250 255 239 253 255 225 248 255 222 247 255 199 227 255 216 238 255 184 214 255 231 241 255 255 255 255 255 255 255 255 255 255 255 255 255 255 255 255 255 255 255 255 255 255 255 255 255 255 255 255 255 255 255 255 255 255 255 255 255 255 255 255 255 255 255 255 255 255 255 255 255 255 255 255 255 255 255 255 255 255 255 255 255 255 255 255 255 255 255 255 255 255 255 255 255 255 255 255 255 255 255 255 255 255 255 255 255 255 255 255 247 255 247 232 255 225 203 255 232 203 255 248 233 255 237 212 255 249 230 255 251 230 255 255 233 255 252 232 255 255 246 255 254 238 255 255 250 255 255 242 255 255 251 255 255 244 255 197 188 229 34 34 56 255 254 255 255 247 255 255 252 255 255 239 254 255 250 255 255 243 255 255 251 255 255 245 255 255 251 255 255 230 249 255 241 254 255 226 249 255 226 250 255 210 235 255 215 235 255 195 220 255 236 247 255 255 255 255 255 255 255 255 255 255 255 255 255 255 255 255 255 255 255 255 255 255 255 255 255 255 255 255 255 255 255 255 255 255 255 255 255 255 255 255 255 255 255 255 255 255 255 255 255 255 255 255 255 255 255 255 255 255 255 255 255 255 255 255 255 255 255 255 255 255 255 255 255 255 255 255 255 255 255 255 255 255 255 255 255 255 255 255 255 255 234 226 255 227 210 255 217 190 255 247 230 255 229 208 255 250 234 255 243 221 255 255 238 255 246 226 255 255 243 255 251 231 255 255 246 255 253 232 255 255 248 255 254 236 255 255 249 255 199 185 227 255 254 255 255 253 255 255 254 255 255 251 255 255 254 255 255 252 255 255 255 255 255 254 255 255 255 255 255 237 254 255 240 255 255 231 251 255 228 249 255 213 239 255 216 237 255 195 219 255 239 249 255 255 255 255 255 255 255 255 255 255 255 255 255 255 255 255 255 255 255 255 255 255 255 255 255 255 255 255 255 255 255 255 255 255 255 255 255 255 255 255 255 255 255 255 255 255 255 255 255 255 255 255 255 255 255 255 255 255 255 255 255 255 255 255 255 255 255 255 255 255 255 255 255 255 255 255 255 255 255 255 255 255 255 255 255 255 255 255 255 255 239 232 255 222 205 255 219 193 255 244 225 255 234 214 255 248 239 255 245 226 255 252 243 255 255 238 255 254 248 255 255 240 255 255 251 255 255 245 255 255 253 255 255 245 255 255 253 255 255 253 255 255 255 255 255 255 255 255 255 255 255 255 255 255 255 255 255 255 255 255 255 255 255 255 255 255 255 255 255 255 255 255 252 255 255 254 255 255 248 255 255 248 255 255 244 255 255 222 245 255 248 252 255 255 255 255 255 255 255 255 255 255 255 255 255 255 255 255 255 255 255 255 255 255 255 255 255 255 255 255 255 255 255 255 255 255 255 255 255 255 255 255 255 255 255 255 255 255 255 255 255 255 255 255 255 255 255 255 255 255 255 255 255 255 255 255 255 255 255 255 255 255 255 255 255 255 255 255 255 255 255 255 255 255 255 255 255 255 255 255 255 255 244 236 255 227 202 255 226 201 255 250 235 255 246 225 255 251 245 255 255 239 255 255 253 255 255 253 255 255 255 255 255 254 255 255 255 255 255 255 255 255 255 255 255 255 255 255 255 255 255 255 255 255 255 255 255 255 255 255 255 255 255 255 255 255 255 255 255 255 255 255 255 255 255 255 255 255 255 255 255 255 255 255 254 255 255 255 255 255 254 255 255 246 255 255 253 255 255 226 247 255 253 255 255 255 255 255 255 255 255 255 255 255 255 255 255 255 255 255 255 255 255 255 255 255 255 255 255 255 255 255 255 255 255 255 255 255 255 255 255 255 255 255 255 255 255 255 255 255 255 255 255 255 255 255 255 255 255 255 255 255 255 255 255 255 255 255 255 255 255 255 255 255 255 255 255 255 255 255 255 255 255 255 255 255 255 255 255 255 255 255 255 255 240 233 255 233 209 255 238 212 255 255 243 255 255 236 255 254 247 255 255 248 255 255 255 255 255 255 255 255 255 255 255 255 255 255 255 255 255 255 255 255 255 255 255 255 255 255 255 255 255 255 255 255 255 255 255 255 255 255 255 255 255 255 255 255 255 255 255 255 255 255 255 255 255 255 255 255 255 255 255 255 255 255 255 255 255 255 255 255 255 255 255 250 255 255 255 255 255 233 251 255 252 255 255 255 255 255 255 255 255 255 255 255 255 255 255 255 255 255 255 255 255 255 255 255 255 255 255 255 255 255 255 255 255 255 255 255 255 255 255 255 255 255 255 255 255 255 255 255 255 255 255 255 255 255 255 255 255 255 255 255 255 255 255 255 255 255 255 255 255 255 255 255 255 255 255 255 255 255 255 255 255 255 255 255 255 255 255 255 255 255 255 255 246 233 255 244 220 255 253 228 255 255 248 255 255 245 255 255 253 255 255 253 255 255 255 255 255 255 255 255 255 255 255 255 255 255 255 255 255 255 255 255 255 255 255 255 255 255 255 255 255 255 255 255 255 255 255 255 255 255 255 255 255 255 255 255 255 255 255 255 255 255 255 255 255 255 255 255 255 255 255 255 255 255 255 255 255 255 255 255 255 255 255 255 255 255 255 255 255 252 255 255 255 255 255 255 255 255 255 255 255 255 255 255 255 255 255 255 255 255 255 255 255 255 255 255 255 255 255 255 255 255 255 255 255 255 255 255 255 255 255 255 255 255 255 255 255 255 255 255 255 255 255 255 255 255 255 255 255 255 255 255 255 255 255 255 255 255 255 255 255 255 255 255 255 255 255 255 255 255 255 255 255 255 255 255 255 255 255 255 255 255 255 255 249 237 255 254 243 255 255 246 255 255 253 255 255 255 255 255 255 255 255 255 255 255 255 255 255 255 255 255 255 255 255 255 255 255 255 255 255 255 255 255 255 255 255 255 255 255 255 255 255 255 255 255 255 255 255 255 255 255 255 255 255 255 255 255 255 255 255 255 255 255 255 255 255 255 255 255 255 255 255 255 255 255 255 255 255 255 255 255 255 255 255 255 255 255 255 255 255 248 255 255 252 255 255 255 255 255 255 255 255 255 255 255 255 255 255 255 255 255 255 255 255 255 255 255 255 255 255 255 255 255 255 255 255 255 255 255 255 255 255 255 255 255 255 255 255 255 255 255 255 255 255 255 255 255 255 255 255 255 255 255 255 255 255 255 255 255 255 255 255 255 255 255 255 255 255 255 255 255 255 255 255 255 255 255 255 255 255 255 255 255 255 255 251 238 255 255 250 255 255 255 255 255 255 255 255 255 255 255 255 255 255 255 255 255 255 255 255 255 255 255 255 255 255 255 255 255 255 255 255 255 255 255 255 255 255 255 255 255 255 255 255 255 255 255 255 255 255 255 255 255 255 255 255 255 255 255 255 255 255 255 255 255 255 255 255 255 255 255 255 255 255 255 255 255 255 255 255 255 255 255 255 255 255 255 255 255 255 255 255 255 255 255 255 255 255 255 255 255 255 255 255 255 255 255 255 255 255 255 255 255 255 255 255 255 255 255 255 255 255 255 255 255 255 255 255 255 255 255 255 255 255 255 255 255 255 255 255 255 255 255 255 255 255 255 255 255 255 255 255 255 255 255 255 255 255 255 255 255 255 255 255 255 255 255 255 255 255 255 255 255 255 255 255 255 255 255 255 255 255 255 255 255 255 255 255 255 255 255 250 255 255 252 255 255 255 255 255 255 255 255 255 255 255 255 255 255 255 255 255 255 255 255 255 255 255 255 255 255 255 255 255 255 255 255 255 255 255 255 255 255 255 255 255 255 255 255 255 255 255 255 255 255 255 255 255 255 255 255 255 255 255 255 255 255 255 255 255 255 255 255 255 255 255 255 255 255 255 255 255 255 255 255 255 255 255 255 255 255 255 255 255 255 255 255 255 255 255 255 255 255 255 255 255 255 255 255 255 255 255 255 255 255 255 255 255 255 255 255 255 255 255 255 255 255 255 255 255 255 255 255 255 255 255 255 255 255 255 255 255 255 255 255 255 255 255 255 255 255 255 255 255 255 255 255 255 255 255 255 255 255 255 255 255 255 255 255 255 255 255 255 255 255 255 255 255 255 255 255 255 255 255 255 255 255 255 255 255 255 255 255 255 255 255 255 255 255 255 255 255 255 255 255 255 255 255 255 255 255 255 255 255 255 255 255 255 255 255 255 255 255 255 255 255 255 255 255 255 255 255 255 255 255 255 255 255 255 255 255 216 218 255 255 255 255 255 255 255 255 255 255 255 255 255 255 255 255 255 255 255 255 255 255 255 255 255 255 255 255 255 255 255 255 255 255 255 255 255 255 255 255 255 255 255 255 255 255 255 255 255 255 255 255 255 255 255 255 255 255 255 255 255 255 255 255 255 255 255 255 255 255 255 255 255 255 255 255 255 255 255 255 255 255 255 255 255 255 255 255 255 255 255 255 255 255 255 255 255 255 255 255 255 255 255 255 255 255 255 255 255 255 255 255 255 255 255 255 255 255 255 255 255 255 255 255 255 255 255 255 255 255 255 255 255 255 255 255 255 255 255 255 255 255 255 255 255 255 255 255 255 255 255 255 255 255 255 255 255 255 255 255 255 255 255 255 255 255 255 255 255 255 255 255 255 255 255 255 255 255 255 255 255 255 255 255 255 255 255 255 255 64 51 64 94 77 89 71 60 76 108 93 103 83 67 73 126 114 118 137 131 134 196 191 193 197 193 194 195 192 193 195 193 194 194 190 191 197 193 195 193 189 191 193 190 192 192 188 192 206 204 207 230 227 228 251 251 251 248 248 248 255 255 255 255 255 255 255 255 255 255 255 255 255 255 255 255 255 255 255 255 255 255 255 255 255 255 255 255 255 255 255 255 255 255 255 255 255 255 255 255 255 255 255 255 255 255 255 255 255 255 255 255 255 255 255 255 255 255 255 255 255 255 255 255 255 255 255 255 255 255 255 255 254 251 251 246 244 244 235 232 232 218 215 216 255 255 255 255 255 255 255 255 255 255 255 255 255 255 255 255 255 255 255 255 255 255 255 255 255 255 255 255 255 255 255 255 255 255 255 255 255 255 255 255 255 255 255 255 255 219 216 252 91 51 53 102 69 72 63 34 35 100 76 81 68 41 50 107 92 98 93 66 72 99 82 85 72 60 74 98 82 84 72 58 72 117 88 98 69 49 59 112 75 84 82 54 57 101 71 86 89 71 74 98 85 99 80 69 78 92 79 95 75 57 66 91 76 88 89 75 80 111 86 100 93 67 76 121 97 107 101 76 81 126 106 123 95 75 87 126 108 119 98 72 88 116 99 114 96 73 85 127 110 118 102 80 92 121 110 125 81 75 95 123 115 129 88 76 96 99 89 98 85 65 73 124 107 114 103 81 86 118 98 104 99 76 77 117 104 110 109 88 91 113 99 99 92 66 67 107 99 101 87 69 69 92 88 88 75 64 65 101 99 103 79 67 67 92 85 85 82 61 63 104 91 99 87 69 72 101 85 87 98 73 76 85 78 83 99 83 93 78 68 81 96 53 56 55 31 35 70 37 41 89 62 72 76 55 58 68 53 60 70 46 57 71 51 56 78 59 63 58 50 58 45 42 53 80 55 67 63 48 59 90 75 83 65 53 65 95 71 80 76 57 67 113 84 94 81 56 56 125 89 89 96 69 74 114 87 99 102 73 83 115 89 111 95 65 75 125 92 111 112 82 93 108 89 111 96 78 90 104 95 116 107 96 104 99 92 119 90 66 78 100 92 107 80 60 72 99 91 103 79 67 75 122 112 131 95 80 96 127 116 137 94 72 82 136 125 130 108 82 87 131 122 129 88 74 86 124 114 120 81 68 88 108 103 111 81 66 82 101 96 107 80 65 75 100 96 107 90 78 84 115 104 106 95 82 83 105 100 104 94 79 82 96 92 103 97 85 92 98 90 91 103 92 96 93 87 100 75 66 80 48 32 58 91 51 52 92 48 51 105 58 63 76 45 53 65 37 52 104 85 87 107 99 108 100 74 82 98 80 93 91 63 76 117 105 118 110 85 95 108 92 103 104 87 91 96 81 93 119 105 107 111 94 102 103 82 85 124 102 113 127 99 108 111 91 104 114 97 101 111 100 116 123 99 105 109 91 103 138 109 120 100 84 100 121 106 130 104 85 108 127 110 132 109 96 115 127 117 136 101 81 102 120 111 133 109 84 110 121 113 138 96 86 94 129 123 151 94 84 104 122 117 138 100 97 105 110 110 121 97 94 105 112 100 118 100 85 97 109 98 111 94 90 104 108 102 116 79 72 76 97 91 111 89 86 92 99 95 113 106 101 122 85 84 95 110 107 127 87 79 86 95 91 100 85 78 90 101 92 94 70 66 77 93 82 96 53 44 77 57 54 100 47 40 74 117 70 81 127 72 86 100 59 72 93 54 66 110 59 68 106 60 69 83 45 56 92 64 75 100 85 96 128 108 116 118 108 128 136 110 122 151 120 128 138 105 117 142 113 117 119 88 94 143 113 120 121 90 91 145 110 116 127 98 103 138 105 107 112 88 93 113 87 96 96 66 71 90 63 79 106 85 91 85 65 74 110 98 101 91 76 91 104 92 102 89 73 95 98 87 101 83 76 94 105 102 129 92 85 101 121 119 135 99 96 109 112 107 129 84 79 90 111 103 140 78 71 99 105 101 138 88 81 108 123 114 138 82 70 103 119 110 130 86 76 109 131 120 141 109 101 126 137 131 151 116 109 125 105 100 122 93 91 127 99 92 118 78 74 95 76 62 78 39 38 67 73 60 85 33 25 43 48 46 85 54 44 85 61 50 86 45 35 79 29 26 57 107 62 77 124 72 82 118 71 82 120 73 85 87 51 63 117 64 72 118 63 68 82 45 59 101 45 55 104 72 81 76 56 60 108 90 92 104 86 95 154 122 122 132 105 111 149 117 126 149 111 121 142 108 114 150 101 109 147 111 117 152 113 120 123 89 99 141 111 117 124 108 112 250 248 249 255 255 255 255 255 255 255 255 255 255 255 255 255 255 255 255 255 255 255 255 255 192 188 190 204 201 205 194 192 194 210 209 219 202 201 203 193 185 202 138 127 141 140 133 154 143 138 152 133 128 165 157 152 173 134 130 160 140 134 161 114 108 138 134 128 158 140 135 166 133 130 166 140 135 166 134 131 167 137 133 152 121 121 156 118 116 128 87 85 113 114 112 133 58 52 102 65 55 106 59 54 97 71 65 113 55 46 83 52 49 89 57 46 83 39 37 83 90 52 68 108 62 78 100 59 74 110 66 79 98 56 72 83 47 60 103 52 62 99 53 66 124 61 70 110 60 71 124 68 78 96 65 71 109 82 90 139 110 126 110 91 103 139 112 129 154 120 131 146 118 133 148 109 132 129 100 120 138 94 110 106 77 95 123 96 101 129 106 110 209 206 206 252 250 250 255 255 255 255 255 255 255 255 255 255 255 255 255 255 255 255 255 255 255 255 255 255 255 255 255 255 255 255 255 255 255 255 255 255 255 255 254 253 255 205 201 206 120 109 126 143 132 150 126 113 143 112 104 124 126 113 154 115 105 131 133 115 152 129 120 142 124 119 148 109 102 125 117 111 140 113 105 126 120 113 136 90 82 112 61 56 111 75 65 122 69 54 109 66 55 100 58 47 85 70 59 103 66 59 101 56 51 93 69 63 105 36 28 55 94 47 68 110 59 75 129 70 84 142 80 88 177 99 108 168 91 103 196 110 116 180 104 118 196 112 118 156 87 97 147 77 88 165 91 100 156 81 99 135 76 90 117 72 81 135 94 99 154 124 131 146 103 108 172 117 124 122 89 105 150 109 120 144 114 129 133 92 110 117 99 106 141 102 111 123 97 100 123 90 96 127 107 108 145 122 129 201 189 194 207 199 205 204 197 204 202 196 201 194 191 195 183 176 186 183 180 188 122 102 122 117 107 136 123 110 136 123 116 141 100 90 116 115 105 127 88 65 101 104 92 120 108 76 107 103 78 108 94 63 100 111 94 118 92 67 95 89 74 104 93 76 113 62 45 73 81 71 130 86 75 134 83 77 138 82 76 142 85 73 133 82 73 130 73 60 108 74 65 112 65 55 94 52 47 87 52 39 79 52 48 93 73 34 38 71 30 38 109 58 63 139 78 86 160 88 89 169 91 104 211 119 128 206 117 131 235 137 142 185 104 113 190 109 113 173 101 108 163 91 106 156 86 96 106 52 67 85 46 55 93 79 91 129 91 101 101 79 83 99 75 85 101 75 87 114 86 93 111 87 98 124 93 101 110 80 95 120 99 110 118 89 110 104 68 88 115 78 85 107 80 103 94 73 84 105 88 109 125 99 120 117 84 110 117 95 117 111 91 114 120 102 116 117 101 126 127 103 130 115 94 123 91 80 113 103 84 113 102 87 118 118 99 126 103 83 115 111 94 126 112 99 138 102 76 111 90 73 105 76 58 112 67 59 116 85 76 148 90 86 155 103 93 163 80 77 144 102 95 172 94 84 153 89 74 130 92 84 144 76 67 114 78 73 125 67 62 111 46 44 83 52 48 91 90 46 52 92 45 68 128 67 73 138 76 87 158 88 91 149 80 90 176 99 107 169 94 102 209 122 128 151 81 94 193 109 116 182 105 111 151 84 92 143 79 90 133 68 73 91 47 55 75 37 44 95 72 81 101 68 72 99 85 99 95 68 79 121 96 109 110 75 82 112 82 101 142 98 113 115 81 101 126 87 109 116 95 114 106 84 103 101 83 116 102 82 99 107 92 124 101 80 101 110 98 120 97 70 89 111 94 111 112 87 103 108 96 113 113 87 115 116 106 128 101 80 109 112 99 133 80 68 90 111 98 116 89 82 110 105 99 115 91 71 91 88 81 107 52 38 87 71 56 116 83 68 125 92 82 145 117 109 191 111 105 178 98 94 160 97 92 167 111 106 176 71 58 99 88 80 134 54 46 84 76 65 110 51 36 73 60 52 93 36 30 68 72 29 41 86 41 53 103 48 61 124 66 73 160 83 91 151 81 93 160 83 85 162 91 94 160 93 94 176 100 108 172 99 107 161 89 104 206 120 124 148 85 94 115 56 65 95 45 52 104 68 85 111 79 86 130 89 95 94 69 77 115 84 86 126 87 98 130 96 111 124 86 101 145 108 120 120 85 101 135 118 136 116 95 115 132 117 135 123 102 138 119 103 123 129 98 122 107 94 112 108 86 110 115 95 115 109 84 100 106 75 89 106 85 107 103 79 102 119 91 113 79 64 94 102 85 113 82 71 99 124 111 124 77 69 91 121 112 130 88 71 90 94 85 112 80 65 125 60 49 96 94 84 149 110 105 174 100 89 162 100 93 162 117 111 193 94 83 149 115 107 182 85 76 131 106 99 169 82 74 129 101 95 163 67 60 108 80 72 122 54 47 93 84 47 56 73 34 39 92 48 56 96 50 61 136 72 81 119 63 72 146 80 84 156 90 97 150 88 92 175 100 109 190 103 108 168 98 106 167 97 102 113 67 75 119 64 79 106 56 68 64 35 53 89 59 81 100 68 90 121 93 106 115 93 117 107 84 104 133 107 120 127 102 114 140 110 136 129 96 113 142 116 138 120 85 102 146 127 148 132 104 115 149 123 151 138 109 121 139 114 129 119 93 107 133 109 116 98 71 88 139 109 123 101 80 93 117 98 117 81 58 82 87 81 103 97 75 103 74 68 94 98 79 107 78 72 97 120 105 122 103 83 98 74 53 75 65 52 106 76 61 109 86 73 126 103 96 164 99 89 164 94 86 152 111 106 188 96 85 157 108 100 170 77 67 124 96 89 156 75 68 121 98 94 162 71 67 119 85 78 137 73 65 112 82 47 58 68 34 42 94 55 61 91 49 60 123 69 80 86 42 55 122 71 76 138 81 89 128 77 81 142 82 92 168 95 102 216 126 134 149 86 99 122 68 83 116 64 74 113 56 71 89 54 77 93 67 80 93 72 100 105 74 88 131 114 136 132 100 108 154 130 149 142 98 109 149 127 146 120 93 97 146 132 138 119 92 98 141 123 126 126 99 104 178 155 159 136 111 117 145 131 138 131 107 116 142 128 134 149 123 133 135 122 129 127 106 117 85 78 90 126 98 111 105 96 121 80 66 93 80 70 96 68 61 93 67 67 95 115 113 134 103 88 102 104 97 122 69 63 116 77 66 122 85 76 136 95 88 152 103 98 175 91 89 150 112 108 186 93 84 144 79 66 114 87 75 128 69 62 108 69 63 109 79 72 124 63 62 102 70 64 112 83 73 122 99 59 76 100 52 65 134 80 94 114 63 75 122 70 87 118 67 78 147 87 93 151 89 97 163 95 102 194 116 120 208 124 128 215 126 137 180 103 112 131 72 79 131 72 82 109 60 65 119 87 99 102 75 83 111 98 106 119 84 90 110 91 97 120 79 86 113 90 104 118 81 92 116 83 96 112 85 99 105 86 101 102 80 103 119 98 119 108 78 105 141 124 139 134 106 134 125 109 129 124 93 127 130 112 126 123 97 119 114 106 130 115 96 110 111 93 108 121 95 105 118 103 130 127 113 144 116 100 133 113 102 136 116 101 132 126 121 136 107 103 131 98 95 121 79 73 131 95 80 141 82 76 133 92 85 146 106 101 172 129 123 208 117 109 184 129 121 201 90 76 129 96 85 152 74 67 120 73 64 117 71 69 124 82 79 134 68 63 107 70 64 110 127 77 87 119 72 82 135 81 90 109 66 73 114 67 80 120 67 75 124 70 79 149 84 93 172 100 107 201 119 125 201 120 128 216 127 140 167 99 109 128 73 79 119 64 67 109 58 64 123 93 100 122 108 113 121 110 122 154 129 137 131 110 123 147 127 133 148 128 142 98 84 103 90 76 93 79 41 53 73 65 90 115 97 109 104 89 108 139 119 133 129 113 129 126 105 128 138 122 140 121 116 136 128 120 133 121 112 124 117 115 133 96 86 95 114 107 118 101 80 95 127 120 150 127 116 145 114 101 131 150 140 174 126 119 147 147 144 168 118 114 136 99 94 133 103 94 167 81 67 122 90 83 142 97 95 162 117 112 192 137 132 220 122 115 195 130 123 205 100 90 152 92 82 144 85 81 140 68 60 105 83 79 143 85 78 134 63 61 109 85 80 138 133 80 86 127 75 85 155 91 98 144 81 85 102 61 70 135 76 78 116 69 76 166 92 97 152 88 94 191 112 116 193 114 118 188 111 121 154 92 101 111 65 69 123 71 75 102 51 64 89 61 70 114 101 106 107 92 100 139 112 123 135 92 116 149 122 139 130 101 123 114 95 117 92 72 99 103 80 98 80 53 89 126 107 124 92 76 113 131 106 127 105 86 107 133 102 127 117 100 117 114 96 114 108 93 113 126 115 126 123 113 124 138 135 157 124 117 141 139 135 157 162 155 173 195 187 201 150 145 156 178 174 197 144 141 156 162 158 175 142 139 167 129 122 170 103 96 166 99 92 159 99 91 154 107 100 167 119 115 195 126 116 195 106 101 173 129 117 196 96 85 144 87 81 138 76 70 120 82 75 127 69 66 114 80 74 126 58 54 91 67 65 110 140 83 93 124 73 79 129 75 83 132 79 82 134 79 84 124 73 77 130 70 76 191 108 114 180 104 106 178 104 112 194 115 118 175 102 109 164 95 105 113 64 76 150 82 84 101 52 57 78 41 53 134 107 119 121 89 97 156 128 140 139 86 95 129 100 119 115 86 113 121 92 107 120 81 92 120 88 104 103 96 102 103 83 95 124 106 113 131 99 117 123 103 114 132 96 110 117 106 118 124 112 132 138 130 141 147 135 148 131 121 139 142 137 161 143 139 163 119 117 149 146 137 161 135 132 146 112 107 121 152 145 167 131 121 137 151 145 159 141 135 151 109 100 142 102 96 170 89 86 155 73 64 109 120 112 187 123 119 211 104 95 167 105 95 165 112 99 173 86 81 138 99 92 158 80 78 130 94 83 140 80 78 128 88 79 131 77 70 116 67 57 100 121 71 78 96 50 57 121 68 73 103 55 67 128 72 82 127 68 77 145 80 86 146 81 83 166 99 103 179 105 115 160 96 101 185 110 114 144 81 90 145 81 92 135 76 79 115 62 70 109 79 85 131 94 104 133 99 104 141 106 115 137 109 112 139 106 113 145 115 119 137 103 109 168 139 144 158 128 139 152 142 147 158 141 147 151 141 153 161 147 154 177 159 166 164 144 156 163 154 163 139 123 131 156 143 153 141 130 144 158 156 170 153 143 163 175 166 180 157 147 176 168 160 176 156 144 160 163 153 167 159 152 168 142 131 145 156 149 168 128 123 142 114 107 124 94 88 158 81 77 142 96 92 156 117 112 190 113 108 188 109 103 178 108 98 170 101 92 158 86 77 132 92 85 142 87 82 147 82 73 126 93 86 156 90 79 138 80 74 123 62 53 90 165 96 104 142 80 86 155 91 97 126 69 73 145 79 85 119 65 68 168 98 102 130 76 77 159 95 110 168 100 109 173 102 109 174 101 107 160 93 104 121 69 81 152 85 91 140 79 85 134 90 92 136 101 115 160 140 141 140 108 111 159 148 148 140 122 129 155 137 138 165 150 158 191 171 177 154 140 141 176 159 164 164 148 158 159 149 159 171 149 158 140 124 130 152 134 149 135 114 124 130 116 132 125 109 128 100 81 101 121 109 127 99 86 118 132 126 143 132 115 154 119 106 122 139 116 138 141 132 151 141 125 147 136 127 150 150 139 160 138 128 147 111 101 128 95 91 162 77 73 139 100 97 169 103 100 170 116 111 194 112 104 179 112 98 172 113 102 173 88 71 122 91 83 143 73 68 124 71 66 116 95 89 153 83 74 126 100 93 162 67 59 102 126 75 84 118 69 79 110 66 71 103 53 58 138 81 86 105 59 61 166 99 104 121 72 78 162 94 108 184 110 116 177 105 115 174 101 112 153 90 104 134 73 85 118 62 78 145 80 84 92 61 68 123 105 109 142 127 136 154 129 139 162 142 153 143 137 142 180 167 173 163 148 150 175 164 173 151 141 149 181 165 172 156 143 151 151 132 149 162 152 167 157 142 151 155 142 157 152 137 146 143 130 145 135 123 134 136 122 148 134 127 149 123 117 135 126 114 124 113 99 125 122 113 126 148 126 154 123 114 135 135 113 147 139 130 154 140 123 158 128 116 142 107 96 145 88 83 150 81 78 153 107 100 179 95 93 167 129 123 219 121 118 199 108 101 176 113 102 176 114 103 179 100 90 159 83 73 132 78 74 128 85 78 136 79 72 123 95 90 153 59 53 91 95 54 69 110 64 74 111 65 70 117 67 69 149 86 91 105 56 60 156 92 97 140 85 90 165 96 107 188 112 116 170 97 110 187 105 116 181 101 117 160 90 105 143 77 87 129 73 78 138 89 102 138 117 134 145 127 135 153 132 146 159 138 142 148 130 138 153 134 145 136 121 136 168 154 166 143 132 142 153 137 152 149 140 154 163 152 163 173 153 162 153 146 148 156 142 158 158 147 158 147 136 158 171 163 173 167 154 178 178 171 186 148 128 147 133 124 136 114 103 130 129 121 132 127 113 137 110 102 124 135 119 156 133 125 144 120 91 121 106 91 120 79 71 113 85 82 153 80 71 133 109 103 180 101 99 175 114 108 187 118 112 194 105 100 176 120 104 180 127 111 193 95 84 148 87 69 124 71 65 112 84 73 127 65 59 102 86 80 139 57 49 86 124 67 76 107 61 68 122 70 72 104 60 63 128 74 75 95 49 51 131 73 79 135 72 79 152 85 89 195 113 120 163 89 103 200 114 120 181 100 115 169 92 107 150 78 86 151 87 91 166 114 121 132 109 116 139 124 132 157 138 143 143 123 126 138 125 128 123 106 119 137 126 133 118 102 106 145 131 138 136 119 134 138 122 130 144 132 136 126 107 116 136 122 126 135 119 127 137 129 137 135 122 135 149 138 148 114 101 110 155 147 153 140 131 151 164 160 169 133 124 139 139 134 142 144 133 147 164 155 162 143 126 147 142 127 141 151 139 154 126 117 147 83 68 114 80 75 137 80 74 138 101 95 165 112 110 190 104 98 176 105 99 173 104 101 177 120 109 190 114 97 175 96 84 148 87 75 132 95 87 149 84 72 126 85 77 130 72 66 115 52 47 80 95 48 58 87 42 61 91 45 52 101 58 71 128 70 79 132 76 83 180 103 111 153 85 91 168 92 97 169 96 104 151 81 101 191 108 120 164 93 105 167 95 104 151 85 89 144 80 85 162 105 113 127 109 118 126 114 126 163 120 130 141 88 98 118 80 94 111 85 102 125 89 105 135 117 134 116 99 110 130 122 127 146 127 133 135 127 135 154 130 144 142 130 145 127 107 132 131 129 136 124 107 133 140 128 142 119 113 131 149 142 150 134 128 142 159 155 163 182 175 185 190 181 196 144 140 155 133 119 137 133 127 139 145 137 145 136 133 137 118 113 129 78 68 121 73 71 131 88 72 123 95 79 137 99 94 159 92 83 147 123 113 189 99 93 160 111 105 179 95 84 148 96 83 143 82 72 124 76 68 114 76 65 108 77 70 117 77 73 122 76 72 120 107 58 66 93 49 67 103 55 62 109 62 84 133 69 83 133 77 94 170 99 107 160 90 108 168 96 103 186 104 117 185 104 120 161 94 110 187 106 110 192 107 116 160 91 96 129 72 80 180 123 131 145 113 126 191 110 124 183 107 116 192 113 130 175 100 110 106 76 100 244 240 242 255 255 255 201 200 216 96 82 134 91 73 135 132 120 146 122 96 111 119 104 112 107 96 113 91 70 88 125 107 137 104 91 114 124 109 133 136 127 146 135 124 137 171 159 174 171 166 189 180 172 188 151 148 167 132 124 152 146 137 166 132 120 143 138 130 154 117 111 140 105 97 142 94 88 162 106 89 156 116 103 174 106 94 160 105 100 168 108 102 172 103 94 162 108 97 163 102 94 157 90 81 135 85 82 138 83 77 128 88 81 139 76 71 119 87 83 140 74 71 117 111 60 70 89 46 63 133 71 83 135 75 95 133 76 80 138 79 94 155 90 94 144 80 96 167 96 104 153 84 96 167 93 105 149 86 96 171 95 104 171 93 98 167 91 95 151 80 93 166 129 138 179 125 132 186 103 115 179 101 115 174 102 117 170 97 103 77 61 77 98 84 99 117 105 121 95 78 133 103 96 169 110 100 172 147 141 172 140 128 147 156 139 153 140 128 143 154 132 155 143 129 149 144 127 139 145 131 155 144 128 165 144 136 169 127 117 149 179 172 183 158 147 168 153 142 157 142 131 153 154 146 165 139 132 154 136 133 152 126 116 137 132 129 160 113 109 197 109 96 169 116 100 170 112 100 171 107 98 169 100 96 173 109 100 176 109 101 173 114 108 179 95 92 159 92 85 146 85 79 134 99 95 159 78 75 135 94 91 155 80 73 125 136 76 79 134 78 82 134 74 82 178 105 116 122 71 78 166 97 108 164 95 105 163 94 103 156 91 100 143 75 87 191 104 115 128 69 81 175 91 96 164 82 84 172 93 94 139 74 84 151 111 127 168 109 113 166 88 97 183 102 111 154 84 99 168 97 103 85 51 61 39 37 39 65 54 59 116 110 186 128 122 172 111 103 176 118 113 182 153 139 160 160 144 157 153 141 160 136 130 148 149 140 170 140 132 151 129 119 152 134 113 148 147 133 165 137 120 154 157 144 161 132 119 140 124 116 135 151 135 151 133 126 154 155 140 158 148 134 153 151 142 154 174 163 177 126 120 179 106 96 171 124 111 186 99 86 154 111 104 177 102 95 170 104 97 169 86 77 131 124 112 186 96 85 143 103 94 159 94 88 151 100 97 163 82 78 133 100 96 160 64 56 97 148 89 93 151 91 96 131 78 82 163 97 105 122 65 74 163 95 103 166 91 99 159 90 96 175 98 102 145 78 86 185 105 119 132 74 83 162 88 95 168 84 86 156 81 83 149 77 84 163 125 132 129 79 86 146 74 83 149 80 92 117 63 71 144 91 97 116 92 102 134 118 126 199 189 202 146 143 165 150 139 179 131 121 166 142 132 168 157 147 159 143 136 155 156 148 158 127 117 130 157 150 161 144 141 160 129 121 167 98 88 155 150 145 170 154 140 157 158 152 175 161 152 167 168 162 190 177 169 178 153 150 177 179 173 189 157 144 172 180 175 196 158 138 158 123 110 159 106 101 175 124 113 193 102 94 161 105 97 163 84 67 130 94 87 164 91 80 141 108 96 162 97 92 155 120 110 182 96 88 153 111 108 181 80 76 129 108 101 167 75 67 113 132 80 81 155 93 98 130 78 85 167 100 103 143 81 87 193 115 118 177 100 104 173 99 101 165 94 97 113 60 62 172 97 107 111 55 62 149 79 82 125 65 66 132 65 70 127 67 69 138 107 112 140 95 105 121 59 65 148 85 91 127 99 101 164 148 149 170 152 165 183 169 172 165 153 165 198 187 200 179 170 175 180 173 185 146 134 141 174 164 169 142 137 146 170 164 169 131 125 134 154 148 152 122 117 132 118 111 178 104 95 166 104 94 162 106 100 145 167 152 174 158 154 174 145 138 159 158 153 169 125 121 148 154 140 162 134 127 138 122 114 125 147 141 147 126 111 157 114 111 189 117 112 192 100 91 156 120 113 188 80 76 132 101 93 163 93 85 152 93 84 146 105 101 171 115 108 184 110 100 171 111 106 180 88 84 143 108 99 163 78 69 121 126 76 77 158 95 99 126 74 75 155 93 96 143 81 82 173 100 104 153 88 92 157 89 94 180 104 106 130 71 76 184 108 112 117 61 65 148 85 86 130 70 75 111 55 59 114 79 86 149 121 123 141 127 129 114 72 77 118 101 105 156 139 148 184 168 172 188 172 176 218 201 207 207 194 198 223 207 210 204 196 206 176 166 178 153 141 149 130 110 115 134 125 128 144 134 141 122 116 125 129 123 128 123 116 125 123 110 172 108 105 175 101 96 163 120 113 151 135 131 153 142 138 158 133 130 146 149 147 158 122 120 129 133 127 144 151 143 160 117 113 119 153 137 147 117 97 132 85 80 140 101 97 163 92 81 138 106 96 165 92 86 150 97 91 152 83 77 144 74 69 125 103 97 163 106 99 166 97 91 154 103 96 163 101 88 155 100 90 151 75 71 123 113 68 75 124 75 78 105 63 70 123 73 82 121 72 78 158 91 96 142 82 87 150 85 91 163 96 99 137 80 83 169 100 104 137 76 81 185 105 108 121 62 67 111 68 77 103 75 81 101 72 74 97 68 80 119 82 85 114 76 76 114 70 72 120 92 114 106 90 96 131 113 124 147 144 167 142 135 151 126 118 139 101 86 105 124 113 129 126 112 122 164 161 168 165 155 169 156 148 158 142 135 152 188 185 196 141 135 173 116 112 179 102 94 152 109 100 141 134 129 149 138 126 153 148 143 161 127 115 135 167 156 167 150 141 154 167 157 169 130 120 131 153 111 124 105 95 124 82 77 133 84 77 138 90 80 137 106 93 159 100 87 144 110 105 186 92 85 157 87 81 143 111 103 172 91 86 142 92 83 143 100 91 156 97 87 148 96 82 140 82 78 131 87 49 53 69 41 42 84 49 54 105 61 64 120 67 69 147 85 86 150 83 85 141 79 83 166 98 100 157 90 93 156 89 93 148 84 95 182 102 106 125 66 67 137 102 106 120 84 89 141 99 100 132 87 90 152 99 109 132 89 91 111 78 82 100 68 73 93 71 96 76 61 76 100 90 126 124 108 140 115 108 143 144 140 165 121 111 130 179 172 188 175 169 196 214 208 219 166 160 175 190 187 194 173 162 173 197 187 198 151 145 174 106 95 150 99 91 150 100 81 122 127 123 158 150 142 162 148 143 166 170 156 177 161 147 168 162 152 171 160 154 168 125 109 137 133 119 144 90 82 123 74 67 132 78 70 129 81 67 120 99 90 159 126 121 208 83 79 138 92 81 143 92 83 139 85 75 124 97 89 152 90 77 136 89 83 138 79 68 120 85 81 142 76 43 48 75 41 48 81 43 49 75 38 44 92 47 49 132 75 81 124 67 73 156 89 95 165 93 99 148 83 94 178 98 103 167 110 116 170 139 152 168 139 151 180 156 168 166 142 151 205 170 173 174 142 146 203 171 176 150 123 130 164 151 156 156 137 141 183 171 177 169 152 174 201 192 205 192 183 204 218 209 221 204 196 210 202 191 203 185 180 194 177 170 176 170 163 180 152 141 153 176 171 183 162 155 170 162 152 172 157 147 170 120 115 160 94 89 143 117 110 137 134 127 158 157 154 174 142 134 158 152 142 166 143 136 155 145 140 152 100 86 104 116 108 134 126 115 151 134 127 166 114 106 136 111 91 134 83 70 132 91 76 134 106 98 168 100 92 168 93 83 144 86 73 126 67 54 90 81 68 118 76 61 108 76 67 113 65 54 98 64 59 100 91 46 62 101 58 64 106 58 67 134 78 87 148 78 86 167 97 110 179 101 109 190 111 117 158 89 93 164 91 101 161 116 120 198 166 171 186 168 175 195 156 162 189 164 168 182 150 157 198 181 186 198 161 164 188 168 173 168 144 158 197 174 179 194 181 187 183 172 177 212 197 201 188 172 175 213 197 202 191 177 181 219 207 210 185 172 176 205 196 198 178 169 176 233 219 226 209 200 220 213 201 222 185 176 199 174 158 186 152 134 169 133 106 150 119 105 147 99 87 131 118 100 131 142 135 159 109 94 122 156 145 157 215 211 217 239 235 239 196 193 210 132 115 139 96 77 114 94 88 127 97 83 118 110 86 138 78 69 127 81 65 128 73 66 115 105 96 174 105 93 165 86 77 133 74 60 108 79 68 119 82 69 119 83 67 119 66 57 105 64 55 96 97 54 63 126 73 82 124 68 84 145 80 96 146 80 91 153 88 103 173 99 106 186 109 112 160 92 97 179 119 126 191 170 177 184 158 162 179 168 171 195 167 173 196 185 192 202 178 184 196 179 186 191 159 166 183 171 174 177 156 170 196 185 192 199 182 186 198 188 191 201 181 183 181 173 178 199 179 187 196 184 192 186 169 170 195 176 182 217 196 201 202 179 185 232 209 215 191 175 183 232 214 224 196 177 197 215 192 201 180 168 184 165 140 157 135 124 141 117 103 128 122 112 137 129 121 139 116 110 129 124 120 134 100 89 124 85 71 116 110 98 141 104 89 138 123 109 147 113 83 128 97 71 116 83 63 114 92 72 126 75 44 88 72 60 117 105 85 158 104 93 163 92 84 151 84 74 131 86 75 132 83 65 114 84 69 122 71 56 93 51 39 73 148 86 101 131 76 90 148 84 95 142 81 93 164 94 106 147 85 93 159 93 101 192 120 122 208 189 190 200 183 184 191 183 187 195 181 187 192 177 190 194 171 177 184 168 171 182 172 175 193 181 188 194 177 183 192 179 182 190 173 179 185 171 178 201 181 187 166 151 156 192 179 187 184 169 179 191 183 189 189 178 187 216 202 208 203 186 202 211 197 204 212 193 208 209 195 203 185 169 181 218 202 213 158 144 159 194 180 187 117 106 117 177 168 176 137 133 159 170 165 172 152 145 168 148 141 157 155 144 162 155 144 162 135 124 147 148 134 150 146 135 157 133 125 151 161 149 176 160 154 190 167 156 198 171 161 186 177 164 184 177 168 180 157 145 167 137 117 176 95 82 147 92 86 157 64 57 111 74 66 122 81 69 125 73 63 118 73 61 112 51 46 77 154 86 99 132 76 88 164 93 100 155 90 97 180 103 113 180 102 110 174 111 120 192 158 175 190 174 183 194 171 187 207 188 191 203 166 183 210 189 191 189 158 178 218 197 199 182 169 173 190 179 183 162 151 158 162 155 166 169 162 172 155 145 158 184 164 177 148 135 143 184 165 181 162 149 159 172 161 177 161 148 163 190 178 194 162 148 164 198 188 203 157 145 169 196 187 206 168 155 173 196 183 198 169 161 181 173 167 181 148 146 153 173 167 175 150 148 161 172 170 180 149 145 159 171 164 167 164 157 171 175 169 181 164 152 176 174 166 177 172 161 180 175 168 175 162 151 171 168 161 180 160 150 180 173 166 194 162 153 190 176 166 183 162 155 197 179 172 193 118 109 147 101 89 173 83 73 138 88 83 153 73 68 122 87 82 145 69 64 115 72 69 116 158 85 94 145 79 89 162 86 91 147 81 87 162 91 96 151 82 87 151 120 131 157 138 149 168 136 147 165 138 141 169 141 147 159 126 130 188 154 156 162 135 140 194 159 160 162 139 148 164 145 153 159 146 159 153 134 148 129 117 134 153 140 148 144 129 146 156 144 152 156 145 161 155 146 154 182 171 187 156 148 158 180 171 188 148 141 155 177 167 183 174 165 182 179 176 193 177 174 187 187 181 191 166 163 176 174 173 182 167 165 174 170 165 170 159 156 168 169 162 169 162 153 160 150 144 157 150 141 150 159 153 159 126 119 140 152 148 156 149 140 154 178 169 184 148 143 161 137 132 142 135 128 152 140 131 146 140 133 155 143 137 154 158 148 178 144 140 154 125 117 161 94 84 162 74 64 117 100 92 164 75 70 127 79 74 136 69 65 114 76 72 129 